<?xml version="1.0" encoding="UTF-8"?>
<svg id="Capa_2" data-name="Capa 2" xmlns="http://www.w3.org/2000/svg" viewBox="0 0 162.32 51.88">
  <defs>
    <style>
      .cls-1 {
        fill: #fff;
        stroke-width: 0px;
      }
    </style>
  </defs>
  <g id="Navetec">
    <g>
      <g>
        <polygon class="cls-1" points="51.87 15.27 43.5 36.64 37.52 51.88 29.79 51.88 25.2 36.64 18.77 15.27 17.56 11.25 16.01 15.27 7.73 36.64 0 36.64 8.28 15.27 14.17 .02 14.19 0 21.92 0 26.51 15.27 32.93 36.64 34.16 40.73 35.77 36.64 44.14 15.27 51.87 15.27"/>
        <g>
          <path class="cls-1" d="m88.91,15.27h12.89v3.39h-8.48v5.47h6.5v3.35h-6.5v5.67h9.38v3.49h-13.8V15.27Z"/>
          <path class="cls-1" d="m110.2,18.66h-6.06v-3.39h16.53v3.39h-6.03v17.98h-4.45v-17.98Z"/>
          <path class="cls-1" d="m123.71,15.27h12.89v3.39h-8.48v5.47h6.5v3.35h-6.5v5.67h9.38v3.49h-13.8V15.27Z"/>
          <path class="cls-1" d="m139.91,25.91c0-1.66.27-3.16.81-4.49.54-1.34,1.27-2.46,2.21-3.37,1.9-1.85,4.35-2.78,7.35-2.78,1.67,0,3.24.19,4.72.58.35.09.7.17,1.03.24l-.64,3.89c-.67-.37-1.2-.62-1.6-.75-.94-.31-1.93-.46-2.97-.46s-1.93.16-2.67.47c-.74.31-1.38.77-1.93,1.36-1.17,1.28-1.75,2.99-1.75,5.14s.56,4,1.69,5.37c1.18,1.42,2.75,2.12,4.72,2.12,1.35,0,2.72-.29,4.1-.88.35-.16.62-.3.81-.44v3.62c-1.34.54-2.41.86-3.19.96-.78.1-1.49.15-2.13.15-3.22,0-5.8-.98-7.73-2.95-1.89-1.93-2.84-4.53-2.84-7.8Z"/>
          <path class="cls-1" d="m66.16,15.28h4.74l3.95,11.65,1.13,4.07,1.14-4.07,3.74-11.65h4.71l-7.78,21.37h-3.75l-7.86-21.37Z"/>
          <path class="cls-1" d="m68.66,36.65h-4.74l-3.95-11.65-1.13-4.07-1.14,4.07-3.74,11.65h-4.71l7.78-21.37h3.75l7.86,21.37Z"/>
        </g>
      </g>
      <g>
        <path class="cls-1" d="m160.27,33.39c.35,0,.53.09.65.19.19.16.25.38.25.57,0,.25-.1.46-.3.6-.06.05-.16.09-.28.11l.79,1.07h-.61l-.68-1.02h-.06v1.02h-.49v-2.53h.73Zm-.24,1.17h.14c.09,0,.49-.01.49-.38s-.39-.38-.48-.38h-.15v.76Z"/>
        <path class="cls-1" d="m160.34,36.66c-1.1,0-1.99-.89-1.99-1.99s.89-1.99,1.99-1.99,1.99.89,1.99,1.99-.89,1.99-1.99,1.99Zm0-3.66c-.92,0-1.67.75-1.67,1.67s.75,1.67,1.67,1.67,1.67-.75,1.67-1.67-.75-1.67-1.67-1.67Z"/>
      </g>
    </g>
  </g>
</svg>