<svg width="30" height="30" viewBox="0 0 30 30" fill="none" xmlns="http://www.w3.org/2000/svg">
<circle cx="15" cy="15" r="14.5" stroke="white"/>
<path d="M19.6543 19.9688V22H10.0254V20.2617L14.6445 15.2715C15.1263 14.7246 15.5072 14.2493 15.7871 13.8457C16.0671 13.4421 16.2656 13.0775 16.3828 12.752C16.5065 12.4199 16.5684 12.1042 16.5684 11.8047C16.5684 11.3685 16.4902 10.9876 16.334 10.6621C16.1777 10.3301 15.9499 10.0729 15.6504 9.89062C15.3574 9.70833 14.9961 9.61719 14.5664 9.61719C14.0911 9.61719 13.6842 9.72786 13.3457 9.94922C13.0137 10.1641 12.7598 10.4635 12.584 10.8477C12.4147 11.2318 12.3301 11.6712 12.3301 12.166H9.74219C9.74219 11.3262 9.9375 10.5612 10.3281 9.87109C10.7188 9.17448 11.2786 8.61784 12.0078 8.20117C12.737 7.78451 13.6029 7.57617 14.6055 7.57617C15.582 7.57617 16.4089 7.73893 17.0859 8.06445C17.763 8.38346 18.2773 8.83919 18.6289 9.43164C18.9805 10.0241 19.1562 10.7305 19.1562 11.5508C19.1562 12.0065 19.0814 12.4557 18.9316 12.8984C18.7819 13.3411 18.5703 13.7806 18.2969 14.2168C18.0299 14.6465 17.7109 15.0827 17.3398 15.5254C16.9688 15.9681 16.5553 16.4206 16.0996 16.8828L13.3262 19.9688H19.6543Z" fill="white"/>
</svg>
