<svg width="30" height="30" viewBox="0 0 30 30" fill="none" xmlns="http://www.w3.org/2000/svg">
<circle cx="15" cy="15" r="14.5" stroke="white"/>
<path d="M12.8477 13.748H14.3027C14.8171 13.748 15.2402 13.6602 15.5723 13.4844C15.9108 13.3021 16.1615 13.0547 16.3242 12.7422C16.4935 12.4232 16.5781 12.0553 16.5781 11.6387C16.5781 11.2285 16.5033 10.8737 16.3535 10.5742C16.2038 10.2682 15.9759 10.0339 15.6699 9.87109C15.3704 9.70182 14.9863 9.61719 14.5176 9.61719C14.14 9.61719 13.7917 9.69206 13.4727 9.8418C13.1602 9.99154 12.9095 10.2064 12.7207 10.4863C12.5384 10.7598 12.4473 11.0885 12.4473 11.4727H9.85938C9.85938 10.7044 10.0612 10.0306 10.4648 9.45117C10.875 8.86523 11.4284 8.40625 12.125 8.07422C12.8216 7.74219 13.5996 7.57617 14.459 7.57617C15.3965 7.57617 16.2168 7.73242 16.9199 8.04492C17.6296 8.35091 18.1797 8.80339 18.5703 9.40234C18.9674 10.0013 19.166 10.7435 19.166 11.6289C19.166 12.0521 19.0651 12.4753 18.8633 12.8984C18.668 13.3151 18.3783 13.6927 17.9941 14.0312C17.6165 14.3633 17.151 14.6335 16.5977 14.8418C16.0508 15.0436 15.4225 15.1445 14.7129 15.1445H12.8477V13.748ZM12.8477 15.7402V14.3633H14.7129C15.5137 14.3633 16.207 14.4577 16.793 14.6465C17.3854 14.8288 17.8737 15.0892 18.2578 15.4277C18.6419 15.7598 18.9251 16.1471 19.1074 16.5898C19.2962 17.0326 19.3906 17.5078 19.3906 18.0156C19.3906 18.6797 19.2669 19.2721 19.0195 19.793C18.7721 20.3073 18.4238 20.7435 17.9746 21.1016C17.5319 21.4596 17.0111 21.7331 16.4121 21.9219C15.8132 22.1042 15.1654 22.1953 14.4688 22.1953C13.8633 22.1953 13.2741 22.1139 12.7012 21.9512C12.1348 21.7819 11.6237 21.5312 11.168 21.1992C10.7122 20.8607 10.3509 20.4375 10.084 19.9297C9.81706 19.4154 9.68359 18.8197 9.68359 18.1426H12.2715C12.2715 18.5332 12.3659 18.8815 12.5547 19.1875C12.75 19.4935 13.0169 19.7344 13.3555 19.9102C13.7005 20.0794 14.0879 20.1641 14.5176 20.1641C14.9928 20.1641 15.3997 20.0794 15.7383 19.9102C16.0833 19.7344 16.347 19.487 16.5293 19.168C16.7116 18.8424 16.8027 18.4551 16.8027 18.0059C16.8027 17.472 16.7018 17.0391 16.5 16.707C16.2982 16.375 16.0085 16.1309 15.6309 15.9746C15.2598 15.8184 14.8171 15.7402 14.3027 15.7402H12.8477Z" fill="white"/>
</svg>
