<svg width="323" height="318" viewBox="0 0 323 318" fill="none" xmlns="http://www.w3.org/2000/svg">
<path d="M293 119C293 142.536 286.021 165.543 272.945 185.113C259.869 204.682 241.284 219.935 219.539 228.942C197.795 237.948 173.868 240.305 150.784 235.713C127.701 231.122 106.497 219.788 89.8543 203.146C73.2118 186.503 61.8782 165.299 57.2866 142.216C52.6949 119.132 55.0515 95.2051 64.0583 73.4607C73.0652 51.7163 88.3177 33.131 107.887 20.0551C127.457 6.97923 150.464 -2.80664e-07 174 0V119H293Z" fill="#68A2B9"/>
<path d="M7.38281 271.125C7.38281 270.859 7.34115 270.625 7.25781 270.422C7.17969 270.214 7.03906 270.026 6.83594 269.859C6.63802 269.693 6.36198 269.534 6.00781 269.383C5.65885 269.232 5.21615 269.078 4.67969 268.922C4.11719 268.755 3.60938 268.57 3.15625 268.367C2.70312 268.159 2.3151 267.922 1.99219 267.656C1.66927 267.391 1.42188 267.086 1.25 266.742C1.07812 266.398 0.992188 266.005 0.992188 265.562C0.992188 265.12 1.08333 264.711 1.26562 264.336C1.44792 263.961 1.70833 263.635 2.04688 263.359C2.39062 263.078 2.79948 262.859 3.27344 262.703C3.7474 262.547 4.27604 262.469 4.85938 262.469C5.71354 262.469 6.4375 262.633 7.03125 262.961C7.63021 263.284 8.08594 263.708 8.39844 264.234C8.71094 264.755 8.86719 265.312 8.86719 265.906H7.36719C7.36719 265.479 7.27604 265.102 7.09375 264.773C6.91146 264.44 6.63542 264.18 6.26562 263.992C5.89583 263.799 5.42708 263.703 4.85938 263.703C4.32292 263.703 3.88021 263.784 3.53125 263.945C3.18229 264.107 2.92188 264.326 2.75 264.602C2.58333 264.878 2.5 265.193 2.5 265.547C2.5 265.786 2.54948 266.005 2.64844 266.203C2.7526 266.396 2.91146 266.576 3.125 266.742C3.34375 266.909 3.61979 267.062 3.95312 267.203C4.29167 267.344 4.69531 267.479 5.16406 267.609C5.8099 267.792 6.36719 267.995 6.83594 268.219C7.30469 268.443 7.6901 268.695 7.99219 268.977C8.29948 269.253 8.52604 269.568 8.67188 269.922C8.82292 270.271 8.89844 270.667 8.89844 271.109C8.89844 271.573 8.80469 271.992 8.61719 272.367C8.42969 272.742 8.16146 273.062 7.8125 273.328C7.46354 273.594 7.04427 273.799 6.55469 273.945C6.07031 274.086 5.52865 274.156 4.92969 274.156C4.40365 274.156 3.88542 274.083 3.375 273.938C2.86979 273.792 2.40885 273.573 1.99219 273.281C1.58073 272.99 1.25 272.63 1 272.203C0.755208 271.771 0.632812 271.271 0.632812 270.703H2.13281C2.13281 271.094 2.20833 271.43 2.35938 271.711C2.51042 271.987 2.71615 272.216 2.97656 272.398C3.24219 272.581 3.54167 272.716 3.875 272.805C4.21354 272.888 4.5651 272.93 4.92969 272.93C5.45573 272.93 5.90104 272.857 6.26562 272.711C6.63021 272.565 6.90625 272.357 7.09375 272.086C7.28646 271.815 7.38281 271.495 7.38281 271.125ZM17.3281 262.625H18.8281V270.32C18.8281 271.174 18.638 271.885 18.2578 272.453C17.8776 273.021 17.3724 273.448 16.7422 273.734C16.1172 274.016 15.4375 274.156 14.7031 274.156C13.9323 274.156 13.2344 274.016 12.6094 273.734C11.9896 273.448 11.4974 273.021 11.1328 272.453C10.7734 271.885 10.5938 271.174 10.5938 270.32V262.625H12.0859V270.32C12.0859 270.914 12.1953 271.404 12.4141 271.789C12.6328 272.174 12.9375 272.461 13.3281 272.648C13.724 272.836 14.1823 272.93 14.7031 272.93C15.2292 272.93 15.6875 272.836 16.0781 272.648C16.474 272.461 16.7812 272.174 17 271.789C17.2188 271.404 17.3281 270.914 17.3281 270.32V262.625ZM21.1953 262.625H24.9609C25.8151 262.625 26.5365 262.755 27.125 263.016C27.7188 263.276 28.1693 263.661 28.4766 264.172C28.7891 264.677 28.9453 265.299 28.9453 266.039C28.9453 266.56 28.8385 267.036 28.625 267.469C28.4167 267.896 28.1146 268.26 27.7188 268.562C27.3281 268.859 26.8594 269.081 26.3125 269.227L25.8906 269.391H22.3516L22.3359 268.164H25.0078C25.5495 268.164 26 268.07 26.3594 267.883C26.7188 267.69 26.9896 267.432 27.1719 267.109C27.3542 266.786 27.4453 266.43 27.4453 266.039C27.4453 265.602 27.3594 265.219 27.1875 264.891C27.0156 264.562 26.7448 264.31 26.375 264.133C26.0104 263.951 25.5391 263.859 24.9609 263.859H22.7031V274H21.1953V262.625ZM27.8438 274L25.0781 268.844L26.6484 268.836L29.4531 273.906V274H27.8438ZM36.4766 268.586L35.3203 268.289L35.8906 262.625H41.7266V263.961H37.1172L36.7734 267.055C36.9818 266.935 37.2448 266.823 37.5625 266.719C37.8854 266.615 38.2552 266.562 38.6719 266.562C39.1979 266.562 39.6693 266.654 40.0859 266.836C40.5026 267.013 40.8568 267.268 41.1484 267.602C41.4453 267.935 41.6719 268.336 41.8281 268.805C41.9844 269.273 42.0625 269.797 42.0625 270.375C42.0625 270.922 41.987 271.424 41.8359 271.883C41.6901 272.341 41.4688 272.742 41.1719 273.086C40.875 273.424 40.5 273.688 40.0469 273.875C39.599 274.062 39.0703 274.156 38.4609 274.156C38.0026 274.156 37.5677 274.094 37.1562 273.969C36.75 273.839 36.3854 273.643 36.0625 273.383C35.7448 273.117 35.4844 272.789 35.2812 272.398C35.0833 272.003 34.9583 271.539 34.9062 271.008H36.2812C36.3438 271.435 36.4688 271.794 36.6562 272.086C36.8438 272.378 37.0885 272.599 37.3906 272.75C37.6979 272.896 38.0547 272.969 38.4609 272.969C38.8047 272.969 39.1094 272.909 39.375 272.789C39.6406 272.669 39.8646 272.497 40.0469 272.273C40.2292 272.049 40.3672 271.779 40.4609 271.461C40.5599 271.143 40.6094 270.786 40.6094 270.391C40.6094 270.031 40.5599 269.698 40.4609 269.391C40.362 269.083 40.2135 268.815 40.0156 268.586C39.8229 268.357 39.5859 268.18 39.3047 268.055C39.0234 267.924 38.7005 267.859 38.3359 267.859C37.8516 267.859 37.4844 267.924 37.2344 268.055C36.9896 268.185 36.737 268.362 36.4766 268.586ZM51 262.625V263.438L46.2891 274H44.7656L49.4688 263.812H43.3125V262.625H51Z" fill="#002856"/>
<path d="M125.143 136.406V139.131L115.246 162H109.902L119.799 140.361H107.055V136.406H125.143ZM133.193 150.346L129.15 149.379L130.609 136.406H144.988V140.502H134.775L134.143 146.18C134.482 145.98 134.998 145.77 135.689 145.547C136.381 145.312 137.154 145.195 138.01 145.195C139.252 145.195 140.354 145.389 141.314 145.775C142.275 146.162 143.09 146.725 143.758 147.463C144.438 148.201 144.953 149.104 145.305 150.17C145.656 151.236 145.832 152.443 145.832 153.791C145.832 154.928 145.656 156.012 145.305 157.043C144.953 158.062 144.42 158.977 143.705 159.785C142.99 160.582 142.094 161.209 141.016 161.666C139.938 162.123 138.66 162.352 137.184 162.352C136.082 162.352 135.016 162.188 133.984 161.859C132.965 161.531 132.045 161.045 131.225 160.4C130.416 159.756 129.766 158.977 129.273 158.062C128.793 157.137 128.541 156.082 128.518 154.898H133.545C133.615 155.625 133.803 156.252 134.107 156.779C134.424 157.295 134.84 157.693 135.355 157.975C135.871 158.256 136.475 158.396 137.166 158.396C137.811 158.396 138.361 158.273 138.818 158.027C139.275 157.781 139.645 157.441 139.926 157.008C140.207 156.562 140.412 156.047 140.541 155.461C140.682 154.863 140.752 154.219 140.752 153.527C140.752 152.836 140.67 152.209 140.506 151.646C140.342 151.084 140.09 150.598 139.75 150.188C139.41 149.777 138.977 149.461 138.449 149.238C137.934 149.016 137.33 148.904 136.639 148.904C135.701 148.904 134.975 149.051 134.459 149.344C133.955 149.637 133.533 149.971 133.193 150.346ZM149.031 142.682V141.328C149.031 140.355 149.242 139.471 149.664 138.674C150.086 137.877 150.707 137.238 151.527 136.758C152.348 136.277 153.355 136.037 154.551 136.037C155.781 136.037 156.807 136.277 157.627 136.758C158.459 137.238 159.08 137.877 159.49 138.674C159.912 139.471 160.123 140.355 160.123 141.328V142.682C160.123 143.631 159.912 144.504 159.49 145.301C159.08 146.098 158.465 146.736 157.645 147.217C156.824 147.697 155.811 147.938 154.604 147.938C153.385 147.938 152.359 147.697 151.527 147.217C150.707 146.736 150.086 146.098 149.664 145.301C149.242 144.504 149.031 143.631 149.031 142.682ZM152.389 141.328V142.682C152.389 143.092 152.465 143.484 152.617 143.859C152.781 144.223 153.027 144.521 153.355 144.756C153.695 144.979 154.105 145.09 154.586 145.09C155.09 145.09 155.5 144.979 155.816 144.756C156.133 144.521 156.367 144.223 156.52 143.859C156.672 143.484 156.748 143.092 156.748 142.682V141.328C156.748 140.895 156.666 140.496 156.502 140.133C156.35 139.758 156.109 139.459 155.781 139.236C155.465 139.002 155.055 138.885 154.551 138.885C154.082 138.885 153.684 139.002 153.355 139.236C153.027 139.459 152.781 139.758 152.617 140.133C152.465 140.496 152.389 140.895 152.389 141.328ZM161.266 157.078V155.725C161.266 154.764 161.477 153.885 161.898 153.088C162.332 152.291 162.959 151.652 163.779 151.172C164.611 150.691 165.631 150.451 166.838 150.451C168.057 150.451 169.076 150.691 169.896 151.172C170.717 151.652 171.338 152.291 171.76 153.088C172.182 153.885 172.393 154.764 172.393 155.725V157.078C172.393 158.039 172.182 158.918 171.76 159.715C171.35 160.512 170.734 161.15 169.914 161.631C169.094 162.111 168.08 162.352 166.873 162.352C165.654 162.352 164.629 162.111 163.797 161.631C162.965 161.15 162.332 160.512 161.898 159.715C161.477 158.918 161.266 158.039 161.266 157.078ZM164.641 155.725V157.078C164.641 157.5 164.734 157.898 164.922 158.273C165.109 158.648 165.367 158.947 165.695 159.17C166.035 159.393 166.428 159.504 166.873 159.504C167.436 159.504 167.875 159.393 168.191 159.17C168.508 158.947 168.725 158.648 168.842 158.273C168.971 157.898 169.035 157.5 169.035 157.078V155.725C169.035 155.303 168.953 154.91 168.789 154.547C168.625 154.172 168.379 153.873 168.051 153.65C167.734 153.416 167.33 153.299 166.838 153.299C166.346 153.299 165.936 153.416 165.607 153.65C165.291 153.873 165.051 154.172 164.887 154.547C164.723 154.91 164.641 155.303 164.641 155.725ZM168.086 140.062L155.588 160.066L153.127 158.766L165.625 138.762L168.086 140.062Z" fill="white"/>
<path d="M202.531 263.633L198.766 274H197.227L201.562 262.625H202.555L202.531 263.633ZM205.688 274L201.914 263.633L201.891 262.625H202.883L207.234 274H205.688ZM205.492 269.789V271.023H199.102V269.789H205.492ZM215.984 272.773V274H209.961V272.773H215.984ZM210.266 262.625V274H208.758V262.625H210.266ZM215.188 267.516V268.742H209.961V267.516H215.188ZM215.906 262.625V263.859H209.961V262.625H215.906ZM217.852 262.625H221.617C222.471 262.625 223.193 262.755 223.781 263.016C224.375 263.276 224.826 263.661 225.133 264.172C225.445 264.677 225.602 265.299 225.602 266.039C225.602 266.56 225.495 267.036 225.281 267.469C225.073 267.896 224.771 268.26 224.375 268.562C223.984 268.859 223.516 269.081 222.969 269.227L222.547 269.391H219.008L218.992 268.164H221.664C222.206 268.164 222.656 268.07 223.016 267.883C223.375 267.69 223.646 267.432 223.828 267.109C224.01 266.786 224.102 266.43 224.102 266.039C224.102 265.602 224.016 265.219 223.844 264.891C223.672 264.562 223.401 264.31 223.031 264.133C222.667 263.951 222.195 263.859 221.617 263.859H219.359V274H217.852V262.625ZM224.5 274L221.734 268.844L223.305 268.836L226.109 273.906V274H224.5ZM236.469 267.953V268.672C236.469 269.526 236.362 270.292 236.148 270.969C235.935 271.646 235.628 272.221 235.227 272.695C234.826 273.169 234.344 273.531 233.781 273.781C233.224 274.031 232.599 274.156 231.906 274.156C231.234 274.156 230.617 274.031 230.055 273.781C229.497 273.531 229.013 273.169 228.602 272.695C228.195 272.221 227.88 271.646 227.656 270.969C227.432 270.292 227.32 269.526 227.32 268.672V267.953C227.32 267.099 227.43 266.336 227.648 265.664C227.872 264.987 228.188 264.411 228.594 263.938C229 263.458 229.482 263.094 230.039 262.844C230.602 262.594 231.219 262.469 231.891 262.469C232.583 262.469 233.208 262.594 233.766 262.844C234.328 263.094 234.81 263.458 235.211 263.938C235.617 264.411 235.927 264.987 236.141 265.664C236.359 266.336 236.469 267.099 236.469 267.953ZM234.977 268.672V267.938C234.977 267.26 234.906 266.661 234.766 266.141C234.63 265.62 234.43 265.182 234.164 264.828C233.898 264.474 233.573 264.206 233.188 264.023C232.807 263.841 232.375 263.75 231.891 263.75C231.422 263.75 230.997 263.841 230.617 264.023C230.242 264.206 229.919 264.474 229.648 264.828C229.383 265.182 229.177 265.62 229.031 266.141C228.885 266.661 228.812 267.26 228.812 267.938V268.672C228.812 269.354 228.885 269.958 229.031 270.484C229.177 271.005 229.385 271.445 229.656 271.805C229.932 272.159 230.258 272.427 230.633 272.609C231.013 272.792 231.438 272.883 231.906 272.883C232.396 272.883 232.831 272.792 233.211 272.609C233.591 272.427 233.911 272.159 234.172 271.805C234.438 271.445 234.638 271.005 234.773 270.484C234.909 269.958 234.977 269.354 234.977 268.672ZM242.922 269.539H239.883V268.312H242.922C243.51 268.312 243.987 268.219 244.352 268.031C244.716 267.844 244.982 267.583 245.148 267.25C245.32 266.917 245.406 266.536 245.406 266.109C245.406 265.719 245.32 265.352 245.148 265.008C244.982 264.664 244.716 264.388 244.352 264.18C243.987 263.966 243.51 263.859 242.922 263.859H240.234V274H238.727V262.625H242.922C243.781 262.625 244.508 262.773 245.102 263.07C245.695 263.367 246.146 263.779 246.453 264.305C246.76 264.826 246.914 265.422 246.914 266.094C246.914 266.823 246.76 267.445 246.453 267.961C246.146 268.477 245.695 268.87 245.102 269.141C244.508 269.406 243.781 269.539 242.922 269.539ZM255.328 262.625H256.828V270.32C256.828 271.174 256.638 271.885 256.258 272.453C255.878 273.021 255.372 273.448 254.742 273.734C254.117 274.016 253.438 274.156 252.703 274.156C251.932 274.156 251.234 274.016 250.609 273.734C249.99 273.448 249.497 273.021 249.133 272.453C248.773 271.885 248.594 271.174 248.594 270.32V262.625H250.086V270.32C250.086 270.914 250.195 271.404 250.414 271.789C250.633 272.174 250.938 272.461 251.328 272.648C251.724 272.836 252.182 272.93 252.703 272.93C253.229 272.93 253.688 272.836 254.078 272.648C254.474 272.461 254.781 272.174 255 271.789C255.219 271.404 255.328 270.914 255.328 270.32V262.625ZM266.422 272.773V274H260.398V272.773H266.422ZM260.703 262.625V274H259.195V262.625H260.703ZM265.625 267.516V268.742H260.398V267.516H265.625ZM266.344 262.625V263.859H260.398V262.625H266.344ZM268.289 262.625H272.055C272.909 262.625 273.63 262.755 274.219 263.016C274.812 263.276 275.263 263.661 275.57 264.172C275.883 264.677 276.039 265.299 276.039 266.039C276.039 266.56 275.932 267.036 275.719 267.469C275.51 267.896 275.208 268.26 274.812 268.562C274.422 268.859 273.953 269.081 273.406 269.227L272.984 269.391H269.445L269.43 268.164H272.102C272.643 268.164 273.094 268.07 273.453 267.883C273.812 267.69 274.083 267.432 274.266 267.109C274.448 266.786 274.539 266.43 274.539 266.039C274.539 265.602 274.453 265.219 274.281 264.891C274.109 264.562 273.839 264.31 273.469 264.133C273.104 263.951 272.633 263.859 272.055 263.859H269.797V274H268.289V262.625ZM274.938 274L272.172 268.844L273.742 268.836L276.547 273.906V274H274.938ZM281.727 262.625V274H280.242V262.625H281.727ZM285.383 262.625V263.859H276.594V262.625H285.383ZM295.609 267.953V268.672C295.609 269.526 295.503 270.292 295.289 270.969C295.076 271.646 294.768 272.221 294.367 272.695C293.966 273.169 293.484 273.531 292.922 273.781C292.365 274.031 291.74 274.156 291.047 274.156C290.375 274.156 289.758 274.031 289.195 273.781C288.638 273.531 288.154 273.169 287.742 272.695C287.336 272.221 287.021 271.646 286.797 270.969C286.573 270.292 286.461 269.526 286.461 268.672V267.953C286.461 267.099 286.57 266.336 286.789 265.664C287.013 264.987 287.328 264.411 287.734 263.938C288.141 263.458 288.622 263.094 289.18 262.844C289.742 262.594 290.359 262.469 291.031 262.469C291.724 262.469 292.349 262.594 292.906 262.844C293.469 263.094 293.951 263.458 294.352 263.938C294.758 264.411 295.068 264.987 295.281 265.664C295.5 266.336 295.609 267.099 295.609 267.953ZM294.117 268.672V267.938C294.117 267.26 294.047 266.661 293.906 266.141C293.771 265.62 293.57 265.182 293.305 264.828C293.039 264.474 292.714 264.206 292.328 264.023C291.948 263.841 291.516 263.75 291.031 263.75C290.562 263.75 290.138 263.841 289.758 264.023C289.383 264.206 289.06 264.474 288.789 264.828C288.523 265.182 288.318 265.62 288.172 266.141C288.026 266.661 287.953 267.26 287.953 267.938V268.672C287.953 269.354 288.026 269.958 288.172 270.484C288.318 271.005 288.526 271.445 288.797 271.805C289.073 272.159 289.398 272.427 289.773 272.609C290.154 272.792 290.578 272.883 291.047 272.883C291.536 272.883 291.971 272.792 292.352 272.609C292.732 272.427 293.052 272.159 293.312 271.805C293.578 271.445 293.779 271.005 293.914 270.484C294.049 269.958 294.117 269.354 294.117 268.672Z" fill="#002856"/>
<path d="M113.695 262.562V274H112.25V264.367L109.336 265.43V264.125L113.469 262.562H113.695ZM125.398 272.812V274H117.953V272.961L121.68 268.812C122.138 268.302 122.492 267.87 122.742 267.516C122.997 267.156 123.174 266.836 123.273 266.555C123.378 266.268 123.43 265.977 123.43 265.68C123.43 265.305 123.352 264.966 123.195 264.664C123.044 264.357 122.82 264.112 122.523 263.93C122.227 263.747 121.867 263.656 121.445 263.656C120.94 263.656 120.518 263.755 120.18 263.953C119.846 264.146 119.596 264.417 119.43 264.766C119.263 265.115 119.18 265.516 119.18 265.969H117.734C117.734 265.328 117.875 264.742 118.156 264.211C118.438 263.68 118.854 263.258 119.406 262.945C119.958 262.628 120.638 262.469 121.445 262.469C122.164 262.469 122.779 262.596 123.289 262.852C123.799 263.102 124.19 263.456 124.461 263.914C124.737 264.367 124.875 264.898 124.875 265.508C124.875 265.841 124.818 266.18 124.703 266.523C124.594 266.862 124.44 267.201 124.242 267.539C124.049 267.878 123.823 268.211 123.562 268.539C123.307 268.867 123.034 269.19 122.742 269.508L119.695 272.812H125.398Z" fill="#002856"/>
<path d="M310.695 262.562V274H309.25V264.367L306.336 265.43V264.125L310.469 262.562H310.695ZM322.086 267.406V269.141C322.086 270.073 322.003 270.859 321.836 271.5C321.669 272.141 321.43 272.656 321.117 273.047C320.805 273.438 320.427 273.721 319.984 273.898C319.547 274.07 319.052 274.156 318.5 274.156C318.062 274.156 317.659 274.102 317.289 273.992C316.919 273.883 316.586 273.708 316.289 273.469C315.997 273.224 315.747 272.906 315.539 272.516C315.331 272.125 315.172 271.651 315.062 271.094C314.953 270.536 314.898 269.885 314.898 269.141V267.406C314.898 266.474 314.982 265.693 315.148 265.062C315.32 264.432 315.562 263.927 315.875 263.547C316.188 263.161 316.562 262.885 317 262.719C317.443 262.552 317.938 262.469 318.484 262.469C318.927 262.469 319.333 262.523 319.703 262.633C320.078 262.737 320.411 262.906 320.703 263.141C320.995 263.37 321.242 263.677 321.445 264.062C321.654 264.443 321.812 264.909 321.922 265.461C322.031 266.013 322.086 266.661 322.086 267.406ZM320.633 269.375V267.164C320.633 266.654 320.602 266.206 320.539 265.82C320.482 265.43 320.396 265.096 320.281 264.82C320.167 264.544 320.021 264.32 319.844 264.148C319.672 263.977 319.471 263.852 319.242 263.773C319.018 263.69 318.766 263.648 318.484 263.648C318.141 263.648 317.836 263.714 317.57 263.844C317.305 263.969 317.081 264.169 316.898 264.445C316.721 264.721 316.586 265.083 316.492 265.531C316.398 265.979 316.352 266.523 316.352 267.164V269.375C316.352 269.885 316.38 270.336 316.438 270.727C316.5 271.117 316.591 271.456 316.711 271.742C316.831 272.023 316.977 272.255 317.148 272.438C317.32 272.62 317.518 272.755 317.742 272.844C317.971 272.927 318.224 272.969 318.5 272.969C318.854 272.969 319.164 272.901 319.43 272.766C319.695 272.63 319.917 272.419 320.094 272.133C320.276 271.841 320.411 271.469 320.5 271.016C320.589 270.557 320.633 270.01 320.633 269.375Z" fill="#002856"/>
<path d="M8.1875 310.383H9.6875C9.60938 311.102 9.40365 311.745 9.07031 312.312C8.73698 312.88 8.26562 313.331 7.65625 313.664C7.04688 313.992 6.28646 314.156 5.375 314.156C4.70833 314.156 4.10156 314.031 3.55469 313.781C3.01302 313.531 2.54688 313.177 2.15625 312.719C1.76562 312.255 1.46354 311.701 1.25 311.055C1.04167 310.404 0.9375 309.68 0.9375 308.883V307.75C0.9375 306.953 1.04167 306.232 1.25 305.586C1.46354 304.935 1.76823 304.378 2.16406 303.914C2.5651 303.451 3.04688 303.094 3.60938 302.844C4.17188 302.594 4.80469 302.469 5.50781 302.469C6.36719 302.469 7.09375 302.63 7.6875 302.953C8.28125 303.276 8.74219 303.724 9.07031 304.297C9.40365 304.865 9.60938 305.523 9.6875 306.273H8.1875C8.11458 305.742 7.97917 305.286 7.78125 304.906C7.58333 304.521 7.30208 304.224 6.9375 304.016C6.57292 303.807 6.09635 303.703 5.50781 303.703C5.0026 303.703 4.55729 303.799 4.17188 303.992C3.79167 304.185 3.47135 304.458 3.21094 304.812C2.95573 305.167 2.76302 305.591 2.63281 306.086C2.5026 306.581 2.4375 307.13 2.4375 307.734V308.883C2.4375 309.44 2.49479 309.964 2.60938 310.453C2.72917 310.943 2.90885 311.372 3.14844 311.742C3.38802 312.112 3.69271 312.404 4.0625 312.617C4.43229 312.826 4.86979 312.93 5.375 312.93C6.01562 312.93 6.52604 312.828 6.90625 312.625C7.28646 312.422 7.57292 312.13 7.76562 311.75C7.96354 311.37 8.10417 310.914 8.1875 310.383ZM15.9531 303.633L12.1875 314H10.6484L14.9844 302.625H15.9766L15.9531 303.633ZM19.1094 314L15.3359 303.633L15.3125 302.625H16.3047L20.6562 314H19.1094ZM18.9141 309.789V311.023H12.5234V309.789H18.9141ZM29.0781 312.773V314H23.3906V312.773H29.0781ZM23.6875 302.625V314H22.1797V302.625H23.6875ZM35.1719 303.633L31.4062 314H29.8672L34.2031 302.625H35.1953L35.1719 303.633ZM38.3281 314L34.5547 303.633L34.5312 302.625H35.5234L39.875 314H38.3281ZM38.1328 309.789V311.023H31.7422V309.789H38.1328ZM41.875 302.625H43.3359L47.0625 311.898L50.7812 302.625H52.25L47.625 314H46.4844L41.875 302.625ZM41.3984 302.625H42.6875L42.8984 309.562V314H41.3984V302.625ZM51.4297 302.625H52.7188V314H51.2188V309.562L51.4297 302.625ZM59.7188 303.633L55.9531 314H54.4141L58.75 302.625H59.7422L59.7188 303.633ZM62.875 314L59.1016 303.633L59.0781 302.625H60.0703L64.4219 314H62.875ZM62.6797 309.789V311.023H56.2891V309.789H62.6797ZM74.6953 302.625V314H73.1797L67.4531 305.227V314H65.9453V302.625H67.4531L73.2031 311.422V302.625H74.6953ZM80.4453 314H78.0703L78.0859 312.773H80.4453C81.2578 312.773 81.9349 312.604 82.4766 312.266C83.0182 311.922 83.4245 311.443 83.6953 310.828C83.9714 310.208 84.1094 309.484 84.1094 308.656V307.961C84.1094 307.31 84.0312 306.732 83.875 306.227C83.7188 305.716 83.4896 305.286 83.1875 304.938C82.8854 304.583 82.5156 304.315 82.0781 304.133C81.6458 303.951 81.1484 303.859 80.5859 303.859H78.0234V302.625H80.5859C81.3307 302.625 82.0104 302.75 82.625 303C83.2396 303.245 83.7682 303.602 84.2109 304.07C84.6589 304.534 85.0026 305.096 85.2422 305.758C85.4818 306.414 85.6016 307.154 85.6016 307.977V308.656C85.6016 309.479 85.4818 310.221 85.2422 310.883C85.0026 311.539 84.6562 312.099 84.2031 312.562C83.7552 313.026 83.2135 313.383 82.5781 313.633C81.9479 313.878 81.237 314 80.4453 314ZM78.875 302.625V314H77.3672V302.625H78.875ZM91.9062 303.633L88.1406 314H86.6016L90.9375 302.625H91.9297L91.9062 303.633ZM95.0625 314L91.2891 303.633L91.2656 302.625H92.2578L96.6094 314H95.0625ZM94.8672 309.789V311.023H88.4766V309.789H94.8672Z" fill="#002856"/>
<path d="M204.383 311.125C204.383 310.859 204.341 310.625 204.258 310.422C204.18 310.214 204.039 310.026 203.836 309.859C203.638 309.693 203.362 309.534 203.008 309.383C202.659 309.232 202.216 309.078 201.68 308.922C201.117 308.755 200.609 308.57 200.156 308.367C199.703 308.159 199.315 307.922 198.992 307.656C198.669 307.391 198.422 307.086 198.25 306.742C198.078 306.398 197.992 306.005 197.992 305.562C197.992 305.12 198.083 304.711 198.266 304.336C198.448 303.961 198.708 303.635 199.047 303.359C199.391 303.078 199.799 302.859 200.273 302.703C200.747 302.547 201.276 302.469 201.859 302.469C202.714 302.469 203.438 302.633 204.031 302.961C204.63 303.284 205.086 303.708 205.398 304.234C205.711 304.755 205.867 305.312 205.867 305.906H204.367C204.367 305.479 204.276 305.102 204.094 304.773C203.911 304.44 203.635 304.18 203.266 303.992C202.896 303.799 202.427 303.703 201.859 303.703C201.323 303.703 200.88 303.784 200.531 303.945C200.182 304.107 199.922 304.326 199.75 304.602C199.583 304.878 199.5 305.193 199.5 305.547C199.5 305.786 199.549 306.005 199.648 306.203C199.753 306.396 199.911 306.576 200.125 306.742C200.344 306.909 200.62 307.062 200.953 307.203C201.292 307.344 201.695 307.479 202.164 307.609C202.81 307.792 203.367 307.995 203.836 308.219C204.305 308.443 204.69 308.695 204.992 308.977C205.299 309.253 205.526 309.568 205.672 309.922C205.823 310.271 205.898 310.667 205.898 311.109C205.898 311.573 205.805 311.992 205.617 312.367C205.43 312.742 205.161 313.062 204.812 313.328C204.464 313.594 204.044 313.799 203.555 313.945C203.07 314.086 202.529 314.156 201.93 314.156C201.404 314.156 200.885 314.083 200.375 313.938C199.87 313.792 199.409 313.573 198.992 313.281C198.581 312.99 198.25 312.63 198 312.203C197.755 311.771 197.633 311.271 197.633 310.703H199.133C199.133 311.094 199.208 311.43 199.359 311.711C199.51 311.987 199.716 312.216 199.977 312.398C200.242 312.581 200.542 312.716 200.875 312.805C201.214 312.888 201.565 312.93 201.93 312.93C202.456 312.93 202.901 312.857 203.266 312.711C203.63 312.565 203.906 312.357 204.094 312.086C204.286 311.815 204.383 311.495 204.383 311.125ZM212.031 303.633L208.266 314H206.727L211.062 302.625H212.055L212.031 303.633ZM215.188 314L211.414 303.633L211.391 302.625H212.383L216.734 314H215.188ZM214.992 309.789V311.023H208.602V309.789H214.992ZM227.008 302.625V314H225.492L219.766 305.227V314H218.258V302.625H219.766L225.516 311.422V302.625H227.008ZM233.648 302.625V314H232.164V302.625H233.648ZM237.305 302.625V303.859H228.516V302.625H237.305ZM242.578 303.633L238.812 314H237.273L241.609 302.625H242.602L242.578 303.633ZM245.734 314L241.961 303.633L241.938 302.625H242.93L247.281 314H245.734ZM245.539 309.789V311.023H239.148V309.789H245.539ZM252.773 302.625H256.539C257.393 302.625 258.115 302.755 258.703 303.016C259.297 303.276 259.747 303.661 260.055 304.172C260.367 304.677 260.523 305.299 260.523 306.039C260.523 306.56 260.417 307.036 260.203 307.469C259.995 307.896 259.693 308.26 259.297 308.562C258.906 308.859 258.438 309.081 257.891 309.227L257.469 309.391H253.93L253.914 308.164H256.586C257.128 308.164 257.578 308.07 257.938 307.883C258.297 307.69 258.568 307.432 258.75 307.109C258.932 306.786 259.023 306.43 259.023 306.039C259.023 305.602 258.938 305.219 258.766 304.891C258.594 304.562 258.323 304.31 257.953 304.133C257.589 303.951 257.117 303.859 256.539 303.859H254.281V314H252.773V302.625ZM259.422 314L256.656 308.844L258.227 308.836L261.031 313.906V314H259.422ZM271.391 307.953V308.672C271.391 309.526 271.284 310.292 271.07 310.969C270.857 311.646 270.549 312.221 270.148 312.695C269.747 313.169 269.266 313.531 268.703 313.781C268.146 314.031 267.521 314.156 266.828 314.156C266.156 314.156 265.539 314.031 264.977 313.781C264.419 313.531 263.935 313.169 263.523 312.695C263.117 312.221 262.802 311.646 262.578 310.969C262.354 310.292 262.242 309.526 262.242 308.672V307.953C262.242 307.099 262.352 306.336 262.57 305.664C262.794 304.987 263.109 304.411 263.516 303.938C263.922 303.458 264.404 303.094 264.961 302.844C265.523 302.594 266.141 302.469 266.812 302.469C267.505 302.469 268.13 302.594 268.688 302.844C269.25 303.094 269.732 303.458 270.133 303.938C270.539 304.411 270.849 304.987 271.062 305.664C271.281 306.336 271.391 307.099 271.391 307.953ZM269.898 308.672V307.938C269.898 307.26 269.828 306.661 269.688 306.141C269.552 305.62 269.352 305.182 269.086 304.828C268.82 304.474 268.495 304.206 268.109 304.023C267.729 303.841 267.297 303.75 266.812 303.75C266.344 303.75 265.919 303.841 265.539 304.023C265.164 304.206 264.841 304.474 264.57 304.828C264.305 305.182 264.099 305.62 263.953 306.141C263.807 306.661 263.734 307.26 263.734 307.938V308.672C263.734 309.354 263.807 309.958 263.953 310.484C264.099 311.005 264.307 311.445 264.578 311.805C264.854 312.159 265.18 312.427 265.555 312.609C265.935 312.792 266.359 312.883 266.828 312.883C267.318 312.883 267.753 312.792 268.133 312.609C268.513 312.427 268.833 312.159 269.094 311.805C269.359 311.445 269.56 311.005 269.695 310.484C269.831 309.958 269.898 309.354 269.898 308.672ZM279.711 311.125C279.711 310.859 279.669 310.625 279.586 310.422C279.508 310.214 279.367 310.026 279.164 309.859C278.966 309.693 278.69 309.534 278.336 309.383C277.987 309.232 277.544 309.078 277.008 308.922C276.445 308.755 275.938 308.57 275.484 308.367C275.031 308.159 274.643 307.922 274.32 307.656C273.997 307.391 273.75 307.086 273.578 306.742C273.406 306.398 273.32 306.005 273.32 305.562C273.32 305.12 273.411 304.711 273.594 304.336C273.776 303.961 274.036 303.635 274.375 303.359C274.719 303.078 275.128 302.859 275.602 302.703C276.076 302.547 276.604 302.469 277.188 302.469C278.042 302.469 278.766 302.633 279.359 302.961C279.958 303.284 280.414 303.708 280.727 304.234C281.039 304.755 281.195 305.312 281.195 305.906H279.695C279.695 305.479 279.604 305.102 279.422 304.773C279.24 304.44 278.964 304.18 278.594 303.992C278.224 303.799 277.755 303.703 277.188 303.703C276.651 303.703 276.208 303.784 275.859 303.945C275.51 304.107 275.25 304.326 275.078 304.602C274.911 304.878 274.828 305.193 274.828 305.547C274.828 305.786 274.878 306.005 274.977 306.203C275.081 306.396 275.24 306.576 275.453 306.742C275.672 306.909 275.948 307.062 276.281 307.203C276.62 307.344 277.023 307.479 277.492 307.609C278.138 307.792 278.695 307.995 279.164 308.219C279.633 308.443 280.018 308.695 280.32 308.977C280.628 309.253 280.854 309.568 281 309.922C281.151 310.271 281.227 310.667 281.227 311.109C281.227 311.573 281.133 311.992 280.945 312.367C280.758 312.742 280.49 313.062 280.141 313.328C279.792 313.594 279.372 313.799 278.883 313.945C278.398 314.086 277.857 314.156 277.258 314.156C276.732 314.156 276.214 314.083 275.703 313.938C275.198 313.792 274.737 313.573 274.32 313.281C273.909 312.99 273.578 312.63 273.328 312.203C273.083 311.771 272.961 311.271 272.961 310.703H274.461C274.461 311.094 274.536 311.43 274.688 311.711C274.839 311.987 275.044 312.216 275.305 312.398C275.57 312.581 275.87 312.716 276.203 312.805C276.542 312.888 276.893 312.93 277.258 312.93C277.784 312.93 278.229 312.857 278.594 312.711C278.958 312.565 279.234 312.357 279.422 312.086C279.615 311.815 279.711 311.495 279.711 311.125ZM287.359 303.633L283.594 314H282.055L286.391 302.625H287.383L287.359 303.633ZM290.516 314L286.742 303.633L286.719 302.625H287.711L292.062 314H290.516ZM290.32 309.789V311.023H283.93V309.789H290.32Z" fill="#002856"/>
<path d="M125.086 310.922C125.086 311.615 124.924 312.203 124.602 312.688C124.284 313.167 123.852 313.531 123.305 313.781C122.763 314.031 122.151 314.156 121.469 314.156C120.786 314.156 120.172 314.031 119.625 313.781C119.078 313.531 118.646 313.167 118.328 312.688C118.01 312.203 117.852 311.615 117.852 310.922C117.852 310.469 117.938 310.055 118.109 309.68C118.286 309.299 118.534 308.969 118.852 308.688C119.174 308.406 119.555 308.19 119.992 308.039C120.435 307.883 120.922 307.805 121.453 307.805C122.151 307.805 122.773 307.94 123.32 308.211C123.867 308.477 124.297 308.844 124.609 309.312C124.927 309.781 125.086 310.318 125.086 310.922ZM123.633 310.891C123.633 310.469 123.542 310.096 123.359 309.773C123.177 309.445 122.922 309.19 122.594 309.008C122.266 308.826 121.885 308.734 121.453 308.734C121.01 308.734 120.628 308.826 120.305 309.008C119.987 309.19 119.74 309.445 119.562 309.773C119.385 310.096 119.297 310.469 119.297 310.891C119.297 311.328 119.383 311.703 119.555 312.016C119.732 312.323 119.982 312.56 120.305 312.727C120.633 312.888 121.021 312.969 121.469 312.969C121.917 312.969 122.302 312.888 122.625 312.727C122.948 312.56 123.195 312.323 123.367 312.016C123.544 311.703 123.633 311.328 123.633 310.891ZM124.82 305.586C124.82 306.138 124.674 306.635 124.383 307.078C124.091 307.521 123.693 307.87 123.188 308.125C122.682 308.38 122.109 308.508 121.469 308.508C120.818 308.508 120.237 308.38 119.727 308.125C119.221 307.87 118.826 307.521 118.539 307.078C118.253 306.635 118.109 306.138 118.109 305.586C118.109 304.924 118.253 304.362 118.539 303.898C118.831 303.435 119.229 303.081 119.734 302.836C120.24 302.591 120.815 302.469 121.461 302.469C122.112 302.469 122.69 302.591 123.195 302.836C123.701 303.081 124.096 303.435 124.383 303.898C124.674 304.362 124.82 304.924 124.82 305.586ZM123.375 305.609C123.375 305.229 123.294 304.893 123.133 304.602C122.971 304.31 122.747 304.081 122.461 303.914C122.174 303.742 121.841 303.656 121.461 303.656C121.081 303.656 120.747 303.737 120.461 303.898C120.18 304.055 119.958 304.279 119.797 304.57C119.641 304.862 119.562 305.208 119.562 305.609C119.562 306 119.641 306.341 119.797 306.633C119.958 306.924 120.182 307.151 120.469 307.312C120.755 307.474 121.089 307.555 121.469 307.555C121.849 307.555 122.18 307.474 122.461 307.312C122.747 307.151 122.971 306.924 123.133 306.633C123.294 306.341 123.375 306 123.375 305.609Z" fill="#002856"/>
<path d="M318.633 310.172V311.359H310.414V310.508L315.508 302.625H316.688L315.422 304.906L312.055 310.172H318.633ZM317.047 302.625V314H315.602V302.625H317.047Z" fill="#002856"/>
</svg>
