<svg width="149" height="149" viewBox="0 0 149 149" fill="none" xmlns="http://www.w3.org/2000/svg">
<circle cx="74.5006" cy="74.5" r="66.0907" fill="white" stroke="#D3F7FB" stroke-width="16"/>
<mask id="path-2-inside-1_28_663" fill="white">
<path d="M74.0896 0.410403C89.7965 0.323398 105.125 5.23036 117.861 14.4228C130.597 23.6152 140.083 36.6175 144.947 51.5522C149.812 66.4869 149.805 82.5813 144.927 97.5116C140.048 112.442 130.551 125.436 117.806 134.616C105.062 143.797 89.7292 148.69 74.0225 148.589C58.3157 148.488 43.0474 143.398 30.4223 134.053C17.7971 124.709 8.46822 111.594 3.78266 96.6019C-0.902903 81.6099 -0.702726 65.5168 4.35429 50.646L74.5 74.5L74.0896 0.410403Z"/>
</mask>
<path d="M74.0896 0.410403C89.7965 0.323398 105.125 5.23036 117.861 14.4228C130.597 23.6152 140.083 36.6175 144.947 51.5522C149.812 66.4869 149.805 82.5813 144.927 97.5116C140.048 112.442 130.551 125.436 117.806 134.616C105.062 143.797 89.7292 148.69 74.0225 148.589C58.3157 148.488 43.0474 143.398 30.4223 134.053C17.7971 124.709 8.46822 111.594 3.78266 96.6019C-0.902903 81.6099 -0.702726 65.5168 4.35429 50.646L74.5 74.5L74.0896 0.410403Z" fill="white" stroke="#49D7E7" stroke-width="30" mask="url(#path-2-inside-1_28_663)"/>
<circle cx="74.5006" cy="74.5" r="65.1998" fill="white"/>
<circle cx="74.5006" cy="74.5" r="65.1998" stroke="#D9D9D9"/>
<path d="M53.1023 82.3182C51.4735 82.3182 50.0341 82.0379 48.7841 81.4773C47.5417 80.9167 46.5682 80.1439 45.8636 79.1591C45.1591 78.1742 44.8106 77.053 44.8182 75.7955C44.8106 74.8106 45.0114 73.9053 45.4205 73.0795C45.8371 72.2462 46.4015 71.553 47.1136 71C47.8258 70.4394 48.6212 70.0833 49.5 69.9318V69.7955C48.3409 69.5152 47.4129 68.8939 46.7159 67.9318C46.0189 66.9697 45.6742 65.8636 45.6818 64.6136C45.6742 63.4242 45.9886 62.3636 46.625 61.4318C47.2689 60.4924 48.1515 59.7538 49.2727 59.2159C50.3939 58.678 51.6705 58.4091 53.1023 58.4091C54.5189 58.4091 55.7841 58.6818 56.8977 59.2273C58.0189 59.7652 58.9015 60.5038 59.5455 61.4432C60.1894 62.375 60.5152 63.4318 60.5227 64.6136C60.5152 65.8636 60.1591 66.9697 59.4545 67.9318C58.75 68.8939 57.8333 69.5152 56.7045 69.7955V69.9318C57.5758 70.0833 58.3598 70.4394 59.0568 71C59.7614 71.553 60.322 72.2462 60.7386 73.0795C61.1629 73.9053 61.3788 74.8106 61.3864 75.7955C61.3788 77.053 61.0227 78.1742 60.3182 79.1591C59.6136 80.1439 58.6364 80.9167 57.3864 81.4773C56.1439 82.0379 54.7159 82.3182 53.1023 82.3182ZM53.1023 79.4432C54.0644 79.4432 54.8977 79.2841 55.6023 78.9659C56.3068 78.6402 56.8523 78.1894 57.2386 77.6136C57.625 77.0303 57.822 76.3485 57.8295 75.5682C57.822 74.7576 57.6098 74.0417 57.1932 73.4205C56.7841 72.7992 56.2273 72.3106 55.5227 71.9545C54.8182 71.5985 54.0114 71.4205 53.1023 71.4205C52.1856 71.4205 51.3712 71.5985 50.6591 71.9545C49.947 72.3106 49.3864 72.7992 48.9773 73.4205C48.5682 74.0417 48.3674 74.7576 48.375 75.5682C48.3674 76.3485 48.553 77.0303 48.9318 77.6136C49.3182 78.1894 49.8674 78.6402 50.5795 78.9659C51.2917 79.2841 52.1326 79.4432 53.1023 79.4432ZM53.1023 68.6136C53.875 68.6136 54.5606 68.4583 55.1591 68.1477C55.7576 67.8371 56.2273 67.4053 56.5682 66.8523C56.9167 66.2992 57.0947 65.6515 57.1023 64.9091C57.0947 64.1818 56.9205 63.5455 56.5795 63C56.2462 62.4545 55.7803 62.0341 55.1818 61.7386C54.5833 61.4356 53.8902 61.2841 53.1023 61.2841C52.2992 61.2841 51.5947 61.4356 50.9886 61.7386C50.3902 62.0341 49.9242 62.4545 49.5909 63C49.2576 63.5455 49.0947 64.1818 49.1023 64.9091C49.0947 65.6515 49.2614 66.2992 49.6023 66.8523C49.9432 67.4053 50.4129 67.8371 51.0114 68.1477C51.6174 68.4583 52.3144 68.6136 53.1023 68.6136ZM73.5597 82.3864C71.7642 82.3788 70.2301 81.9053 68.9574 80.9659C67.6847 80.0265 66.7112 78.6591 66.0369 76.8636C65.3627 75.0682 65.0256 72.9053 65.0256 70.375C65.0256 67.8523 65.3627 65.697 66.0369 63.9091C66.7188 62.1212 67.696 60.7576 68.9688 59.8182C70.2491 58.8788 71.7794 58.4091 73.5597 58.4091C75.34 58.4091 76.8665 58.8826 78.1392 59.8295C79.4119 60.7689 80.3854 62.1326 81.0597 63.9205C81.7415 65.7008 82.0824 67.8523 82.0824 70.375C82.0824 72.9129 81.7453 75.0795 81.071 76.875C80.3968 78.6629 79.4233 80.0303 78.1506 80.9773C76.8778 81.9167 75.3475 82.3864 73.5597 82.3864ZM73.5597 79.3523C75.1354 79.3523 76.3665 78.5833 77.2528 77.0455C78.1468 75.5076 78.5938 73.2841 78.5938 70.375C78.5938 68.4432 78.3892 66.8106 77.9801 65.4773C77.5786 64.1364 76.9991 63.1212 76.2415 62.4318C75.4915 61.7348 74.5975 61.3864 73.5597 61.3864C71.9915 61.3864 70.7604 62.1591 69.8665 63.7045C68.9725 65.25 68.5218 67.4735 68.5142 70.375C68.5142 72.3144 68.715 73.9545 69.1165 75.2955C69.5256 76.6288 70.1051 77.6402 70.8551 78.3295C71.6051 79.0114 72.5066 79.3523 73.5597 79.3523ZM98.2614 77.6364V76.4091C98.2614 75.5303 98.4432 74.7273 98.8068 74C99.178 73.2652 99.7159 72.678 100.42 72.2386C101.133 71.7917 101.992 71.5682 103 71.5682C104.03 71.5682 104.894 71.7879 105.591 72.2273C106.288 72.6667 106.814 73.2538 107.17 73.9886C107.534 74.7235 107.716 75.5303 107.716 76.4091V77.6364C107.716 78.5152 107.534 79.322 107.17 80.0568C106.807 80.7841 106.273 81.3712 105.568 81.8182C104.871 82.2576 104.015 82.4773 103 82.4773C101.977 82.4773 101.114 82.2576 100.409 81.8182C99.7045 81.3712 99.1705 80.7841 98.8068 80.0568C98.4432 79.322 98.2614 78.5152 98.2614 77.6364ZM100.909 76.4091V77.6364C100.909 78.2879 101.064 78.8788 101.375 79.4091C101.686 79.9394 102.227 80.2045 103 80.2045C103.765 80.2045 104.299 79.9394 104.602 79.4091C104.905 78.8788 105.057 78.2879 105.057 77.6364V76.4091C105.057 75.7576 104.909 75.1667 104.614 74.6364C104.326 74.1061 103.788 73.8409 103 73.8409C102.242 73.8409 101.705 74.1061 101.386 74.6364C101.068 75.1667 100.909 75.7576 100.909 76.4091ZM86.5568 64.3182V63.0909C86.5568 62.2121 86.7386 61.4053 87.1023 60.6705C87.4735 59.9356 88.0114 59.3485 88.7159 58.9091C89.428 58.4697 90.2879 58.25 91.2955 58.25C92.3258 58.25 93.1894 58.4697 93.8864 58.9091C94.5833 59.3485 95.1098 59.9356 95.4659 60.6705C95.822 61.4053 96 62.2121 96 63.0909V64.3182C96 65.197 95.8182 66.0038 95.4545 66.7386C95.0985 67.4659 94.5682 68.053 93.8636 68.5C93.1667 68.9394 92.3106 69.1591 91.2955 69.1591C90.2652 69.1591 89.3977 68.9394 88.6932 68.5C87.9962 68.053 87.4659 67.4659 87.1023 66.7386C86.7386 66.0038 86.5568 65.197 86.5568 64.3182ZM89.2159 63.0909V64.3182C89.2159 64.9697 89.3674 65.5606 89.6705 66.0909C89.9811 66.6212 90.5227 66.8864 91.2955 66.8864C92.053 66.8864 92.5833 66.6212 92.8864 66.0909C93.197 65.5606 93.3523 64.9697 93.3523 64.3182V63.0909C93.3523 62.4394 93.2045 61.8485 92.9091 61.3182C92.6136 60.7879 92.0758 60.5227 91.2955 60.5227C90.5379 60.5227 90 60.7879 89.6818 61.3182C89.3712 61.8485 89.2159 62.4394 89.2159 63.0909ZM87.6364 82L103.636 58.7273H106.352L90.3523 82H87.6364Z" fill="#021D49"/>
</svg>
