<svg width="149" height="149" viewBox="0 0 149 149" fill="none" xmlns="http://www.w3.org/2000/svg">
<circle cx="74.5006" cy="74.5" r="66.0907" fill="white" stroke="#ABD3E3" stroke-width="16"/>
<mask id="path-2-inside-1_28_675" fill="white">
<path d="M74.0896 0.410403C86.2737 0.342912 98.2864 3.28131 109.064 8.96534C119.841 14.6494 129.05 22.9036 135.875 32.9968C142.7 43.09 146.931 54.7107 148.193 66.8295C149.454 78.9483 147.707 91.1912 143.107 102.474C138.507 113.756 131.195 123.73 121.819 131.512C112.444 139.293 101.294 144.643 89.3567 147.086C77.4199 149.529 65.0647 148.991 53.3857 145.518C41.7066 142.046 31.0641 135.747 22.401 127.179L74.5 74.5L74.0896 0.410403Z"/>
</mask>
<path d="M74.0896 0.410403C86.2737 0.342912 98.2864 3.28131 109.064 8.96534C119.841 14.6494 129.05 22.9036 135.875 32.9968C142.7 43.09 146.931 54.7107 148.193 66.8295C149.454 78.9483 147.707 91.1912 143.107 102.474C138.507 113.756 131.195 123.73 121.819 131.512C112.444 139.293 101.294 144.643 89.3567 147.086C77.4199 149.529 65.0647 148.991 53.3857 145.518C41.7066 142.046 31.0641 135.747 22.401 127.179L74.5 74.5L74.0896 0.410403Z" fill="white" stroke="#43AED9" stroke-width="30" mask="url(#path-2-inside-1_28_675)"/>
<circle cx="74.5006" cy="74.5" r="65.1998" fill="white"/>
<circle cx="74.5006" cy="74.5" r="65.1998" stroke="#D9D9D9"/>
<path d="M57.3636 87.3182C56.3258 87.303 55.303 87.1136 54.2955 86.75C53.2955 86.3864 52.3864 85.7803 51.5682 84.9318C50.75 84.0833 50.0947 82.9432 49.6023 81.5114C49.1174 80.0795 48.875 78.2917 48.875 76.1477C48.875 74.1174 49.0758 72.3144 49.4773 70.7386C49.8864 69.1629 50.4735 67.8333 51.2386 66.75C52.0038 65.6591 52.928 64.8295 54.0114 64.2614C55.0947 63.6932 56.3106 63.4091 57.6591 63.4091C59.0455 63.4091 60.2765 63.6818 61.3523 64.2273C62.428 64.7727 63.2992 65.5265 63.9659 66.4886C64.6402 67.4508 65.0682 68.5455 65.25 69.7727H61.7841C61.5492 68.803 61.0833 68.0114 60.3864 67.3977C59.6894 66.7841 58.7803 66.4773 57.6591 66.4773C55.9545 66.4773 54.625 67.2197 53.6705 68.7045C52.7235 70.1894 52.2462 72.2538 52.2386 74.8977H52.4091C52.8106 74.2386 53.303 73.678 53.8864 73.2159C54.4773 72.7462 55.1364 72.3864 55.8636 72.1364C56.5985 71.8788 57.3712 71.75 58.1818 71.75C59.5303 71.75 60.75 72.0795 61.8409 72.7386C62.9394 73.3902 63.8144 74.2917 64.4659 75.4432C65.1174 76.5947 65.4432 77.9129 65.4432 79.3977C65.4432 80.8826 65.1061 82.2273 64.4318 83.4318C63.7652 84.6364 62.8258 85.5909 61.6136 86.2955C60.4015 86.9924 58.9848 87.3333 57.3636 87.3182ZM57.3523 84.3636C58.2462 84.3636 59.0455 84.1439 59.75 83.7045C60.4545 83.2652 61.0114 82.6742 61.4205 81.9318C61.8295 81.1894 62.0341 80.3598 62.0341 79.4432C62.0341 78.5492 61.8333 77.7348 61.4318 77C61.0379 76.2652 60.4924 75.6818 59.7955 75.25C59.1061 74.8182 58.3182 74.6023 57.4318 74.6023C56.7576 74.6023 56.1326 74.7311 55.5568 74.9886C54.9886 75.2462 54.4886 75.6023 54.0568 76.0568C53.625 76.5114 53.2841 77.0341 53.0341 77.625C52.7917 78.2083 52.6705 78.8258 52.6705 79.4773C52.6705 80.3485 52.8712 81.1553 53.2727 81.8977C53.6818 82.6402 54.2386 83.2386 54.9432 83.6932C55.6553 84.1402 56.4583 84.3636 57.3523 84.3636ZM77.7074 87.3182C76.6695 87.303 75.6468 87.1136 74.6392 86.75C73.6392 86.3864 72.7301 85.7803 71.9119 84.9318C71.0938 84.0833 70.4384 82.9432 69.946 81.5114C69.4612 80.0795 69.2188 78.2917 69.2188 76.1477C69.2188 74.1174 69.4195 72.3144 69.821 70.7386C70.2301 69.1629 70.8172 67.8333 71.5824 66.75C72.3475 65.6591 73.2718 64.8295 74.3551 64.2614C75.4384 63.6932 76.6544 63.4091 78.0028 63.4091C79.3892 63.4091 80.6203 63.6818 81.696 64.2273C82.7718 64.7727 83.643 65.5265 84.3097 66.4886C84.9839 67.4508 85.4119 68.5455 85.5938 69.7727H82.1278C81.893 68.803 81.4271 68.0114 80.7301 67.3977C80.0331 66.7841 79.1241 66.4773 78.0028 66.4773C76.2983 66.4773 74.9688 67.2197 74.0142 68.7045C73.0672 70.1894 72.59 72.2538 72.5824 74.8977H72.7528C73.1544 74.2386 73.6468 73.678 74.2301 73.2159C74.821 72.7462 75.4801 72.3864 76.2074 72.1364C76.9422 71.8788 77.715 71.75 78.5256 71.75C79.8741 71.75 81.0938 72.0795 82.1847 72.7386C83.2831 73.3902 84.1581 74.2917 84.8097 75.4432C85.4612 76.5947 85.7869 77.9129 85.7869 79.3977C85.7869 80.8826 85.4498 82.2273 84.7756 83.4318C84.1089 84.6364 83.1695 85.5909 81.9574 86.2955C80.7453 86.9924 79.3286 87.3333 77.7074 87.3182ZM77.696 84.3636C78.59 84.3636 79.3892 84.1439 80.0938 83.7045C80.7983 83.2652 81.3551 82.6742 81.7642 81.9318C82.1733 81.1894 82.3778 80.3598 82.3778 79.4432C82.3778 78.5492 82.1771 77.7348 81.7756 77C81.3816 76.2652 80.8362 75.6818 80.1392 75.25C79.4498 74.8182 78.6619 74.6023 77.7756 74.6023C77.1013 74.6023 76.4763 74.7311 75.9006 74.9886C75.3324 75.2462 74.8324 75.6023 74.4006 76.0568C73.9688 76.5114 73.6278 77.0341 73.3778 77.625C73.1354 78.2083 73.0142 78.8258 73.0142 79.4773C73.0142 80.3485 73.215 81.1553 73.6165 81.8977C74.0256 82.6402 74.5824 83.2386 75.2869 83.6932C75.9991 84.1402 76.8021 84.3636 77.696 84.3636ZM102.074 82.6364V81.4091C102.074 80.5303 102.256 79.7273 102.619 79C102.991 78.2652 103.528 77.678 104.233 77.2386C104.945 76.7917 105.805 76.5682 106.812 76.5682C107.843 76.5682 108.706 76.7879 109.403 77.2273C110.1 77.6667 110.627 78.2538 110.983 78.9886C111.347 79.7235 111.528 80.5303 111.528 81.4091V82.6364C111.528 83.5152 111.347 84.322 110.983 85.0568C110.619 85.7841 110.085 86.3712 109.381 86.8182C108.684 87.2576 107.828 87.4773 106.812 87.4773C105.79 87.4773 104.926 87.2576 104.222 86.8182C103.517 86.3712 102.983 85.7841 102.619 85.0568C102.256 84.322 102.074 83.5152 102.074 82.6364ZM104.722 81.4091V82.6364C104.722 83.2879 104.877 83.8788 105.188 84.4091C105.498 84.9394 106.04 85.2045 106.812 85.2045C107.578 85.2045 108.112 84.9394 108.415 84.4091C108.718 83.8788 108.869 83.2879 108.869 82.6364V81.4091C108.869 80.7576 108.722 80.1667 108.426 79.6364C108.138 79.1061 107.6 78.8409 106.812 78.8409C106.055 78.8409 105.517 79.1061 105.199 79.6364C104.881 80.1667 104.722 80.7576 104.722 81.4091ZM90.3693 69.3182V68.0909C90.3693 67.2121 90.5511 66.4053 90.9148 65.6705C91.286 64.9356 91.8239 64.3485 92.5284 63.9091C93.2405 63.4697 94.1004 63.25 95.108 63.25C96.1383 63.25 97.0019 63.4697 97.6989 63.9091C98.3958 64.3485 98.9223 64.9356 99.2784 65.6705C99.6345 66.4053 99.8125 67.2121 99.8125 68.0909V69.3182C99.8125 70.197 99.6307 71.0038 99.267 71.7386C98.911 72.4659 98.3807 73.053 97.6761 73.5C96.9792 73.9394 96.1231 74.1591 95.108 74.1591C94.0777 74.1591 93.2102 73.9394 92.5057 73.5C91.8087 73.053 91.2784 72.4659 90.9148 71.7386C90.5511 71.0038 90.3693 70.197 90.3693 69.3182ZM93.0284 68.0909V69.3182C93.0284 69.9697 93.1799 70.5606 93.483 71.0909C93.7936 71.6212 94.3352 71.8864 95.108 71.8864C95.8655 71.8864 96.3958 71.6212 96.6989 71.0909C97.0095 70.5606 97.1648 69.9697 97.1648 69.3182V68.0909C97.1648 67.4394 97.017 66.8485 96.7216 66.3182C96.4261 65.7879 95.8883 65.5227 95.108 65.5227C94.3504 65.5227 93.8125 65.7879 93.4943 66.3182C93.1837 66.8485 93.0284 67.4394 93.0284 68.0909ZM91.4489 87L107.449 63.7273H110.165L94.1648 87H91.4489Z" fill="#021D49"/>
</svg>
